<svg xmlns="http://www.w3.org/2000/svg" width="64" height="65" fill="none"><rect width="64" height="64" y=".083" fill="#fff" rx="6"/><path fill="#333" d="M23.657 12.332q-1.053-1.053-2.596-1.053-1.474 0-2.526 1.053-1.053 1.052-1.053 2.596 0 1.473 1.053 2.526t2.526 1.052q1.543 0 2.596-1.052 1.052-1.053 1.052-2.526 0-1.545-1.052-2.596m-5.403 40.556V21.102h5.613v31.786zM31.993 40.96V26.434h-5.262v-5.333h5.262v-6.104h5.614v6.104h8.91v5.333h-8.84v14.524q0 3.72 1.544 5.193t4.981 1.473h2.316v5.263h-2.035q-12.49 0-12.49-11.929Z"/></svg>